<?xml version="1.0" encoding="UTF-8"?>
<svg width="608px" height="160px" version="1.1" viewBox="0 0 608 160" xmlns="http://www.w3.org/2000/svg" xmlns:cc="http://creativecommons.org/ns#" xmlns:dc="http://purl.org/dc/elements/1.1/" xmlns:rdf="http://www.w3.org/1999/02/22-rdf-syntax-ns#">
 <!-- Generator: Sketch 3.3.1 (12005) - http://www.bohemiancoding.com/sketch -->
 <title>Tmux logomark + wordmark</title>
 <desc>Created with Sketch.</desc>
 <g fill="none" fill-rule="evenodd">
  <g id="vlpa">
   <g id="vlpb">
    <g id="vlpc" fill="#1BB91F">
     <path d="m0 116h160v29c0 8.286-6.722 15-15 15h-130c-8.283 0-15-6.707-15-15v-29zm0 0h160v30h-160v-30z"/>
    </g>
    <path id="vlpd" d="m83 70v-70h-6v146h6v-70h77v-6h-77zm-83-54.99c0-8.288 6.722-15.01 15-15.01h130c8.283 0 15 6.725 15 15.01v131h-160v-131z" fill="#3C3C3C"/>
   </g>
   <path id="vlpe" d="m241.8 147.8c-10.92 0-19.13-2.867-24.65-8.602s-8.272-14.23-8.272-25.48v-51.78h-19.85v-14.89h19.85v-33.09h16.54v33.09h36.4v14.89h-36.4v51.95c0 6.507 1.599 11.28 4.798 14.31 3.198 3.033 7.389 4.549 12.57 4.549 2.426 0 5.128-0.2757 8.106-0.8272 2.978-0.5514 6.011-1.379 9.099-2.481l3.309 14.56c-3.75 1.323-7.417 2.288-11 2.895-3.584 0.6066-7.086 0.9099-10.5 0.9099zm52.93-1.489h-16.54v-99.26h16.54v16.54s10.06-9.926 14.97-13.23c4.908-3.309 10.67-4.963 17.29-4.963 5.845 0 10.84 1.627 14.97 4.88s7.086 7.693 8.851 13.32c0 0 11.14-9.926 16.21-13.23s11.08-4.963 18.03-4.963c7.72 0 13.9 2.84 18.53 8.52 4.632 5.68 6.948 13.32 6.948 22.91v69.48h-16.54v-66.83c0-6.617-1.268-11.33-3.805-14.14-2.537-2.812-6.176-4.219-10.92-4.219-4.742 0-9.457 1.434-14.14 4.301-4.687 2.868-8.851 6.672-12.49 11.41v69.48h-16.54v-66.83c0-6.617-1.268-11.33-3.805-14.14-2.537-2.812-6.176-4.219-10.92-4.219-4.742 0-9.457 1.434-14.14 4.301-4.687 2.868-8.851 6.672-12.49 11.41v69.48zm144.2-7.61c-5.845-6.176-8.768-14.39-8.768-24.65v-67h16.54v63.69c0 7.058 1.654 12.41 4.963 16.05 3.309 3.64 8.161 5.459 14.56 5.459 5.073 0 10.12-1.461 15.14-4.384s10.01-7.251 14.97-12.99v-67.83h16.54v99.26h-16.54v-16.54s-11.22 9.926-16.46 13.23c-5.239 3.309-11.11 4.963-17.62 4.963-9.705 0-17.48-3.088-23.33-9.264zm149.7 7.61-24.15-37.39-22.66 37.39h-18.36l33.09-49.8-31.93-49.46h18.53l23 35.73 23.33-35.73h18.36l-33.42 48.47 32.76 50.79h-18.53z" fill="#1BB91F"/>
  </g>
 </g>
</svg>
